<svg width="58" height="76" viewBox="0 0 58 76" fill="none" xmlns="http://www.w3.org/2000/svg">
<path d="M9.98626 2.12742C9.47855 3.09307 14.7914 10.9083 15.8737 12.5535C18.6438 16.7643 20.8502 23.9045 21.719 30.0836M21.719 30.0836C22.0411 32.3744 22.1794 34.5331 22.0943 36.3615C21.4064 51.15 3.66151 51.8568 2.03742 38.8697C1.4039 33.8037 8.12327 30.2265 12.2317 29.4916C15.3996 28.925 18.6401 29.2096 21.719 30.0836ZM21.719 30.0836C24.7109 30.9328 27.5502 32.3385 30.0223 34.0605C40.2663 41.1959 48.2073 60.0598 46.4031 72.4359M32.2816 62.5996C36.0204 65.2039 42.3621 72.3899 46.1879 73.7008C46.4456 73.7891 54.7244 60.4895 56.2395 58.3144" stroke="#4F8F4A" stroke-width="4" stroke-linecap="round"/>
</svg>
