<svg width="59" height="51" viewBox="0 0 59 51" fill="none" xmlns="http://www.w3.org/2000/svg">
<path d="M1 44.2535C6.17223 44.1643 11.8218 44.2232 17 44.2538C20.7783 44.2762 25.2124 43.7565 28.9942 43.9141C32.6496 44.0664 36.2849 44.2538 39.9494 44.2538C43.0413 44.2538 46.2133 44.4641 49.2884 44.0886C50.2935 43.9658 51.263 43.9233 52.2728 43.9233C54.039 43.9233 55.8051 43.9233 57.5713 43.9233" stroke="black" stroke-width="2" stroke-linecap="round"/>
<path d="M26.3309 42.7666C26.3309 42.1938 26.672 40.6178 25.9176 40.6178C25.0959 40.6178 24.652 40.096 24.0994 39.5434C21.9667 37.4107 20.7473 35.1566 20.2243 32.2798C19.8441 30.1889 21.2403 27.9883 22.1618 26.2375C23.4737 23.745 25.2083 21.6458 27.4879 19.9931C29.3165 18.6674 31.5043 17.708 33.6404 17.0178C36.6881 16.0332 39.7778 16.1547 42.9335 16.1547C45.279 16.1547 46.9288 16.8459 48.9024 18.0555C50.3354 18.9338 51.716 19.683 52.6214 21.1318C53.6322 22.7491 54.4567 24.5926 54.761 26.4946C54.9694 27.7966 54.9263 29.1007 54.9263 30.4157C54.9263 30.8399 55.0625 31.5462 54.8437 31.94C54.2844 32.9467 54.0199 34.0277 53.402 35.0346C52.5876 36.3618 51.0895 37.4686 49.7105 38.1385C49.3987 38.2899 48.2509 38.7372 48.4432 39.0016C48.7115 39.3705 48.7726 40.4305 48.8473 40.8933C48.9482 41.5188 49.3064 42.1392 49.3064 42.7666" stroke="black" stroke-width="2" stroke-linecap="round"/>
<path d="M28.9766 25.7412V25.9065" stroke="black" stroke-width="3" stroke-linecap="round"/>
<path d="M43.0117 25.0996L43.0227 25.2843" stroke="black" stroke-width="3" stroke-linecap="round"/>
<path d="M34.0452 27.4496C35.4746 28.5117 36.8212 28.3072 38.0421 26.5737" stroke="black" stroke-width="2" stroke-linecap="round"/>
<path d="M41.1935 44.5494C42.3781 43.5658 43.8422 43.9895 45.3406 43.6727C45.9069 43.553 44.7558 42.4905 45.316 42.3286C46.0568 42.1145 47.4136 41.8595 48.1693 41.6997C49.0189 41.5201 49.8736 42.196 50.4366 43.012C50.9778 43.7963 50.854 44.8514 50.2411 45.581C49.6806 46.248 49.1533 46.4767 48.1112 47.4238C47.3773 48.0908 47.1662 48.4704 46.1305 48.6894C44.4621 49.0421 42.7243 48.8701 41.1009 48.3481C40.5123 48.1589 39.927 47.9516 39.4824 47.7523C38.9155 47.4982 38.6642 46.8839 39.0523 46.3989C39.6324 45.6742 40.7819 44.8912 41.1935 44.5494Z" fill="#FFFDF5" stroke="black" stroke-width="2" stroke-linecap="round"/>
<path d="M42.5014 19.8148C46.5248 18.9437 50.3408 19.2642 53.6945 20.4996C53.9831 20.3964 54.743 19.1659 55.3789 18.3082C55.8185 17.7153 56.1213 17.564 56.2669 16.9678C56.3038 16.8166 55.4548 16.2401 55.4346 16.1893C55.4346 16.1893 54.6802 15.3612 54.2347 15.1971C53.2611 14.8384 52.3166 14.3738 51.3013 14.1318C50.5076 13.9425 45.6672 13.0542 44.6909 13.0706C44.4352 12.9764 48.8023 13.2434 48.9961 12.7172C49.1412 12.3233 49.2116 10.2628 49.1358 9.95676C48.9737 9.30144 48.8455 8.6831 48.6398 8.06244C48.1231 6.50378 46.8203 6.41414 45.7819 6.03162C43.8893 5.33444 41.9519 4.55696 39.7915 4.65013C38.5923 4.70184 37.2875 5.8007 35.9078 7.83464C35.172 8.91921 34.3008 10.0027 33.6114 11.1913C33.0706 12.1237 33.2485 12.3807 32.7305 12.2268C31.2699 11.793 29.5926 11.7778 27.8131 12.4632C27.1523 12.7177 26.5394 12.7681 25.8317 13.2615C25.091 13.7778 24.2521 15.4567 23.5652 16.3388C22.7288 17.4128 26.0143 18.8303 26.2784 18.9276C28.6737 19.8099 30.9647 21.033 33.7223 20.8445C36.6276 20.6459 39.4682 20.4715 42.5014 19.8148Z" fill="#4F8F4A" stroke="black" stroke-width="2" stroke-linecap="round"/>
<path d="M6.25121 41.613C6.33975 41.9125 6.56249 43.4025 6.5064 42.8966H12.5524C15.0962 42.8966 17.6297 42.6974 20.1688 42.6974C20.7749 42.6974 27 43.0605 27 42.3986C27 41.7894 26.5831 41.1964 26.3817 40.6061C26.0422 39.6109 25.6845 38.4851 25.2333 37.5631C24.7837 36.6444 24.737 35.4924 24.3107 34.5312C23.7971 33.3731 23.4118 32.2593 23.0151 31.0456C22.614 29.8181 22.263 27.6172 20.7773 28.058C19.9612 28.3001 19.0875 28.0531 18.2549 28.2571C17.5189 28.4375 16.7722 28.3031 16.0269 28.3678C14.7887 28.4752 13.5639 28.8148 12.3267 28.9542C10.159 29.1986 8.00433 29.6229 5.85861 30.0386C5.28383 30.15 3.45456 30.193 3.01228 30.5919C2.86741 30.7226 4.04903 34.024 4.2097 34.4316C4.64098 35.5256 4.98313 36.6019 5.35805 37.7291C5.77596 38.9855 5.87561 40.3426 6.25121 41.613Z" fill="#D9D9D9"/>
<path d="M36.0008 40.5006C33.5812 40.5006 29.4204 40.0006 27.0008 40.0006C27.0008 40.0006 27.5394 42.0389 28.0008 42.5003C28.2828 42.7823 29.6132 43.0003 30.0008 43.0003H32.5008C33.529 43.0003 34.4934 43.0451 35.5008 43.0003C37.0431 42.9317 38.1745 43.1436 37.6695 41.3759C37.5508 40.9605 36.3193 40.5006 36.0008 40.5006Z" fill="#D9D9D9"/>
<path d="M6.25121 41.613C6.33975 41.9125 6.56249 43.4025 6.5064 42.8966H12.5524C15.0962 42.8966 17.6297 42.6974 20.1688 42.6974C20.7749 42.6974 27 43.0605 27 42.3986C27 41.7894 26.5831 41.1964 26.3817 40.6061C26.0422 39.6109 25.6845 38.4851 25.2333 37.5631C24.7837 36.6444 24.737 35.4924 24.3107 34.5312C23.7971 33.3731 23.4118 32.2593 23.0151 31.0456C22.614 29.8181 22.263 27.6172 20.7773 28.058C19.9612 28.3001 19.0875 28.0531 18.2549 28.2571C17.5189 28.4375 16.7722 28.3031 16.0269 28.3678C14.7887 28.4752 13.5639 28.8148 12.3267 28.9542C10.159 29.1986 8.00433 29.6229 5.85861 30.0386C5.28383 30.15 3.45456 30.193 3.01228 30.5919C2.86741 30.7226 4.04903 34.024 4.2097 34.4316C4.64098 35.5256 4.98313 36.6019 5.35805 37.7291C5.77596 38.9855 5.87561 40.3426 6.25121 41.613Z" stroke="black" stroke-width="2" stroke-linecap="round"/>
<path d="M36.0008 40.5006C33.5812 40.5006 29.4204 40.0006 27.0008 40.0006C27.0008 40.0006 27.5394 42.0389 28.0008 42.5003C28.2828 42.7823 29.6132 43.0003 30.0008 43.0003H32.5008C33.529 43.0003 34.4934 43.0451 35.5008 43.0003C37.0431 42.9317 38.1745 43.1436 37.6695 41.3759C37.5508 40.9605 36.3193 40.5006 36.0008 40.5006Z" stroke="black" stroke-width="2" stroke-linecap="round"/>
</svg>
