<svg width="38" height="56" viewBox="0 0 38 56" fill="none" xmlns="http://www.w3.org/2000/svg">
<mask id="path-1-inside-1_993_1330" fill="white">
<path fill-rule="evenodd" clip-rule="evenodd" d="M37.5804 18.9527C37.7799 18.8219 37.9124 18.5993 37.9124 18.3428C37.9124 8.21236 29.4298 0 18.966 0C8.50214 0 0.0195312 8.21236 0.0195312 18.3428C0.0195312 18.632 0.188044 18.8783 0.431241 18.9983C0.483044 19.1961 0.550901 19.3936 0.635689 19.5894L15.3293 53.523C16.7211 56.7371 21.2789 56.7371 22.6707 53.523L37.3643 19.5894C37.4556 19.3786 37.5273 19.1658 37.5804 18.9527Z"/>
</mask>
<path fill-rule="evenodd" clip-rule="evenodd" d="M37.5804 18.9527C37.7799 18.8219 37.9124 18.5993 37.9124 18.3428C37.9124 8.21236 29.4298 0 18.966 0C8.50214 0 0.0195312 8.21236 0.0195312 18.3428C0.0195312 18.632 0.188044 18.8783 0.431241 18.9983C0.483044 19.1961 0.550901 19.3936 0.635689 19.5894L15.3293 53.523C16.7211 56.7371 21.2789 56.7371 22.6707 53.523L37.3643 19.5894C37.4556 19.3786 37.5273 19.1658 37.5804 18.9527Z" fill="#F27B7B"/>
<path d="M37.5804 18.9527L35.9355 16.4439L34.9536 17.0876L34.6695 18.2269L37.5804 18.9527ZM0.431241 18.9983L3.33342 18.2384L2.98663 16.9139L1.75877 16.308L0.431241 18.9983ZM0.635689 19.5894L3.38868 18.3974L3.38868 18.3974L0.635689 19.5894ZM15.3293 53.523L12.5764 54.7151L12.5764 54.7151L15.3293 53.523ZM22.6707 53.523L25.4236 54.7151L25.4236 54.7151L22.6707 53.523ZM37.3643 19.5894L34.6113 18.3974L34.6113 18.3974L37.3643 19.5894ZM39.2253 21.4616C40.2179 20.8108 40.9124 19.6718 40.9124 18.3428H34.9124C34.9124 17.5267 35.342 16.833 35.9355 16.4439L39.2253 21.4616ZM40.9124 18.3428C40.9124 6.46468 30.9944 -3 18.966 -3V3C27.8653 3 34.9124 9.96003 34.9124 18.3428H40.9124ZM18.966 -3C6.93759 -3 -2.98047 6.46468 -2.98047 18.3428H3.01953C3.01953 9.96003 10.0667 3 18.966 3V-3ZM-2.98047 18.3428C-2.98047 19.8464 -2.097 21.0961 -0.89629 21.6886L1.75877 16.308C2.47308 16.6605 3.01953 17.4176 3.01953 18.3428H-2.98047ZM-2.47094 19.7581C-2.38036 20.1041 -2.26257 20.446 -2.1173 20.7815L3.38868 18.3974C3.36437 18.3412 3.34645 18.2882 3.33342 18.2384L-2.47094 19.7581ZM-2.1173 20.7815L12.5764 54.7151L18.0823 52.3309L3.38868 18.3974L-2.1173 20.7815ZM12.5764 54.7151C15.0119 60.3397 22.9881 60.3397 25.4236 54.7151L19.9177 52.3309C19.5697 53.1344 18.4303 53.1344 18.0823 52.3309L12.5764 54.7151ZM25.4236 54.7151L40.1173 20.7815L34.6113 18.3974L19.9177 52.3309L25.4236 54.7151ZM40.1173 20.7815C40.2737 20.4203 40.3983 20.0515 40.4913 19.6785L34.6695 18.2269C34.6563 18.2801 34.6375 18.337 34.6113 18.3974L40.1173 20.7815Z" fill="black" mask="url(#path-1-inside-1_993_1330)"/>
<path d="M12 21.6416V21.8069" stroke="black" stroke-width="3" stroke-linecap="round"/>
<path d="M26.0352 21L26.0461 21.1847" stroke="black" stroke-width="3" stroke-linecap="round"/>
<path d="M17.0687 23.35C18.498 24.4121 19.8446 24.2076 21.0656 22.4741" stroke="black" stroke-width="2" stroke-linecap="round"/>
</svg>
