<svg viewBox="0 0 100 54" fill="none" xmlns="http://www.w3.org/2000/svg">
<path d="M32.0377 49.8084C41.0977 50.5332 50.3621 49.9864 59.4497 49.9864C68.5579 46.7168 80.1732 39.7914 88.5527 34.9454C94.5071 31.5019 100.247 21.6806 97.4082 14.7424C95.7519 10.6937 90.6581 7.50951 87.0397 5.61993C76.2555 -0.0118251 64.0464 1.43725 52.5522 3.66193C35.1114 7.03758 18.7735 11.8232 6.13876 24.7994C0.93907 30.1396 0.150471 37.8073 5.96076 43.1334C13.3706 49.9257 22.7288 49.0637 32.0377 49.8084Z" fill="currentColor"/>
<path d="M59.4497 49.9864C50.3621 49.9864 41.0977 50.5332 32.0377 49.8084C22.7288 49.0637 13.3706 49.9257 5.96076 43.1334C0.150471 37.8073 0.93907 30.1396 6.13876 24.7994C18.7735 11.8232 35.1114 7.03758 52.5522 3.66193C64.0464 1.43725 76.2555 -0.0118251 87.0397 5.61993C90.6581 7.50951 95.7519 10.6937 97.4082 14.7424C100.247 21.6806 94.5071 31.5019 88.5527 34.9454C80.1732 39.7914 68.5579 46.7168 59.4497 49.9864ZM59.4497 49.9864C57.0436 50.8501 49.9694 53 47.5 53" stroke="#E52727" stroke-width="2" stroke-linecap="round"/>
<path d="M36.7 19.504C36.4947 21.9973 36.2453 24.5493 35.952 27.16C35.688 29.7413 35.3213 32.176 34.852 34.464C34.7347 35.0213 34.5733 35.4173 34.368 35.652C34.1627 35.8867 33.8693 36.048 33.488 36.136C33.1653 36.1947 32.7107 36.092 32.124 35.828C31.5667 35.564 31.0973 35.1827 30.716 34.684C30.2173 34.0093 29.6747 33.276 29.088 32.484C28.5307 31.6627 27.9147 30.8413 27.24 30.02C26.5947 29.1693 25.9053 28.3333 25.172 27.512C24.468 26.6907 23.72 25.928 22.928 25.224C22.84 27.16 22.7667 29.0813 22.708 30.988C22.6493 32.8653 22.6493 34.7573 22.708 36.664C22.708 36.928 22.4733 37.06 22.004 37.06C21.4467 37.06 20.992 36.7813 20.64 36.224C20.288 35.6373 20.0827 35.0507 20.024 34.464C19.936 33.8773 19.892 33.0413 19.892 31.956C19.892 30.8413 19.9067 29.6827 19.936 28.48C19.9947 27.2773 20.0533 26.1187 20.112 25.004C20.1707 23.8893 20.2293 23.0093 20.288 22.364C20.3467 21.66 20.508 21.1467 20.772 20.824C21.0653 20.5013 21.344 20.3547 21.608 20.384C22.1947 20.4427 22.576 20.6187 22.752 20.912C22.9573 21.176 23.0747 21.5133 23.104 21.924C24.16 22.6867 25.128 23.508 26.008 24.388C26.9173 25.268 27.7387 26.1627 28.472 27.072C29.2347 27.9813 29.924 28.8907 30.54 29.8C31.1853 30.68 31.7867 31.4867 32.344 32.22C32.696 30.46 32.9747 28.4947 33.18 26.324C33.4147 24.1533 33.6493 21.88 33.884 19.504C33.8547 19.2107 34.0307 18.932 34.412 18.668C34.7933 18.3747 35.1453 18.2427 35.468 18.272C36.2893 18.3307 36.7 18.7413 36.7 19.504ZM52.9333 26.588C53.0506 26.8813 52.9333 27.1747 52.5813 27.468C52.2293 27.732 51.6719 27.908 50.9093 27.996C49.5893 28.172 48.2399 28.3627 46.8613 28.568C45.4826 28.744 44.0746 28.9347 42.6373 29.14C42.5786 30.636 42.5786 32.132 42.6373 33.628C43.3119 33.628 44.1186 33.5693 45.0573 33.452C46.0253 33.3053 47.0079 33.1293 48.0053 32.924C49.0026 32.7187 49.9559 32.5133 50.8653 32.308C51.8039 32.0733 52.5959 31.8827 53.2413 31.736C53.5639 31.648 53.9013 31.5893 54.2533 31.56C54.6053 31.5013 54.9133 31.5013 55.1773 31.56C55.4706 31.5893 55.7053 31.692 55.8813 31.868C56.0573 32.044 56.1453 32.2933 56.1453 32.616C56.1453 32.704 56.0426 32.836 55.8373 33.012C55.6319 33.188 55.3679 33.3787 55.0453 33.584C54.7519 33.76 54.4293 33.936 54.0773 34.112C53.7546 34.2587 53.4613 34.376 53.1973 34.464C51.3786 35.0507 49.5893 35.564 47.8293 36.004C46.0693 36.4147 44.3533 36.6347 42.6813 36.664C41.7133 36.6933 40.9799 36.444 40.4813 35.916C39.9826 35.3587 39.7186 34.5667 39.6893 33.54C39.6306 32.1027 39.6306 30.6507 39.6893 29.184C39.1906 28.8907 38.9413 28.48 38.9413 27.952C38.9999 27.3947 39.2639 27.0133 39.7332 26.808C39.7919 25.9573 39.8359 25.1067 39.8653 24.256C39.8946 23.376 39.9386 22.5107 39.9973 21.66C39.6746 21.6013 39.3813 21.44 39.1173 21.176C38.8826 20.912 38.7653 20.6187 38.7653 20.296C38.7653 20.032 38.8239 19.7973 38.9413 19.592C39.0586 19.3573 39.2786 19.1813 39.6013 19.064C40.1293 18.9467 40.7746 18.8147 41.5373 18.668C42.2999 18.5213 43.0773 18.3893 43.8693 18.272C44.6906 18.1547 45.4679 18.052 46.2013 17.964C46.9639 17.876 47.6093 17.8173 48.1373 17.788C48.7533 17.7293 49.3399 17.788 49.8972 17.964C50.4839 18.14 51.0266 18.4773 51.5253 18.976C51.6426 19.3867 51.5546 19.6947 51.2613 19.9C50.9973 20.1053 50.6453 20.2373 50.2053 20.296C49.7653 20.3547 49.2373 20.428 48.6213 20.516C48.0053 20.5747 47.3599 20.648 46.6853 20.736C46.0399 20.824 45.3799 20.912 44.7053 21C44.0599 21.0587 43.4439 21.132 42.8573 21.22C42.8573 21.2787 42.8573 21.352 42.8573 21.44C42.8866 21.4987 42.9013 21.5573 42.9013 21.616C42.8426 22.3787 42.7986 23.1413 42.7693 23.904C42.7399 24.6667 42.7106 25.4293 42.6813 26.192C43.9133 25.9867 45.1746 25.8107 46.4653 25.664C47.7559 25.488 48.7826 25.3707 49.5453 25.312C50.1613 25.2533 50.7626 25.3267 51.3493 25.532C51.9359 25.7373 52.4639 26.0893 52.9333 26.588ZM83.4761 20.516C82.6255 22.716 81.6281 25.0187 80.4841 27.424C79.3695 29.8 78.0348 32.1613 76.4801 34.508C76.0401 35.1827 75.5415 35.52 74.9841 35.52C74.6321 35.52 74.3388 35.4467 74.1041 35.3C73.8695 35.124 73.6641 34.904 73.4881 34.64C72.7255 33.4667 72.0361 32.22 71.4201 30.9C70.8041 29.58 70.2028 28.084 69.6161 26.412C68.7655 27.908 67.8121 29.4187 66.7561 30.944C65.7295 32.4693 64.6001 33.892 63.3681 35.212C63.1335 35.476 62.8841 35.652 62.6201 35.74C62.3855 35.828 62.1948 35.8573 62.0481 35.828C61.4321 35.74 60.9481 35.3587 60.5961 34.684C59.5108 32.66 58.7775 30.4307 58.3961 27.996C58.0148 25.5613 57.8095 23.068 57.7801 20.516C57.7801 20.2813 57.8681 20.0467 58.0441 19.812C58.2201 19.5773 58.4841 19.4747 58.8361 19.504C59.3641 19.5333 59.7748 19.7387 60.0681 20.12C60.3615 20.472 60.5375 20.912 60.5961 21.44C60.6548 22.1733 60.7281 23.0093 60.8161 23.948C60.9041 24.8573 61.0215 25.796 61.1681 26.764C61.3148 27.732 61.5055 28.6707 61.7401 29.58C61.9748 30.4893 62.2681 31.2813 62.6201 31.956C63.0601 31.3987 63.5295 30.7827 64.0281 30.108C64.5268 29.4333 65.0108 28.7293 65.4801 27.996C65.9788 27.2627 66.4481 26.5293 66.8881 25.796C67.3281 25.0333 67.7241 24.2853 68.0761 23.552C68.3108 23.0533 68.6041 22.7307 68.9561 22.584C69.3081 22.4373 69.5868 22.364 69.7921 22.364C70.6721 22.364 71.2735 22.7893 71.5961 23.64C72.0948 24.872 72.5935 26.1773 73.0921 27.556C73.6201 28.9347 74.1921 30.24 74.8081 31.472C75.3361 30.6507 75.8788 29.7267 76.4361 28.7C76.9935 27.6733 77.5361 26.632 78.0641 25.576C78.5921 24.4907 79.0908 23.4053 79.5601 22.32C80.0588 21.2347 80.4988 20.208 80.8801 19.24C81.0268 18.888 81.2761 18.5947 81.6281 18.36C81.9801 18.1253 82.3615 18.14 82.7721 18.404C83.0948 18.6093 83.3148 18.9467 83.4321 19.416C83.5788 19.856 83.5935 20.2227 83.4761 20.516Z" fill="#E52727"/>
</svg>
