<svg width="711" height="29" viewBox="0 0 711 29" fill="none" xmlns="http://www.w3.org/2000/svg">
<path d="M191.145 21.0365L190.811 19.7199L189.238 19.0841L188.149 19.2265L185.92 18.1181L184.965 17.2189L183.887 15.5705L182.657 12.7112L181.347 7.59819L181.023 7.10335L179.033 6.40323L176.994 6.669L174.444 7.36476L172.58 8.38849L169.358 12.2701L166.584 16.5184L165.116 13.8295L163.956 9.52877L162.176 8.63765L161.383 8.5843L159.283 8.85841L156.374 10.4637L152.332 14.0803L148.616 18.0072L148.538 18.056L147.938 16.8559L147.254 11.0122L145.379 10.005L142.491 10.5422L140.65 11.5555L138.287 13.4974L136.828 15.4573L135.239 18.1586L134.477 18.7866L134.064 17.4805L133.142 11.6184L131.209 10.73L128.922 11.0288L123.687 14.3154L118.857 18.566L117.461 13.2024L116.78 12.4581L114.767 11.856L112.746 12.1201L110.221 12.8839L107.332 14.4379L104.247 18.0875L102.883 19.3374L101.735 14.0629L101.196 13.3481L99.2854 12.5808L96.6522 12.9134L94.0727 14.2411L90.0596 16.8109L87.9161 18.5564L87.8415 18.3512L87.4602 14.7596L86.9842 13.0871L85.8781 11.765L83.9471 11.0198L81.7443 11.3077L79.3881 12.5609L75.3536 16.3294L73.264 17.7934L71.6625 18.7017L71.0319 16.9386L70.1261 10.7977L68.3018 9.82968L65.3821 10.3062L62.0078 12.408L60.2968 14.0007L56.4516 18.5658L55.0656 19.7189L53.9593 17.1807L53.5242 11.0872L51.3816 10.3718L49.2993 10.6437L47.3862 11.6955L46.4935 12.988L45.6953 14.8413L42.1607 18.7683L38.5519 21.6655L37.2647 22.4475L36.1007 22.9473L35.6375 22.1157L35.354 20.1513L35.9493 12.0548L35.3876 10.2432L33.5022 9.5024L31.4116 9.77611L28.8213 11.3064L26.7392 13.8786L22.1035 20.8307L20.8099 22.2356L19.9962 22.814L19.386 21.9469L17.4678 15.8182L15.5218 14.9273L13.2545 15.2229L10.8198 16.5586L7.00633 20.0228L6.60804 19.8619L4.35148 20.1565L2.49367 21.1785L1.79054 21.6727L0.816372 23.0849L0.760638 24.0156L1.35266 25.8956L2.90918 26.5253L5.62392 26.31L8.0293 24.9719L12.3222 21.1139L13.668 23.3229L15.2505 27.3323L17.2472 28.0488L19.3822 27.7708L21.9395 26.6718L24.7111 24.9428L26.4651 22.5586L29.5973 17.1248L30.031 16.5632L30.9578 20.6095L31.1006 25.797L31.4784 27.0889L33.2697 27.9284L36.6939 27.4205L40.7279 25.0632L43.6624 22.3862L48.6251 17.0193L49.3805 18.7653L49.9708 24.1251L50.2153 24.644L52.1886 25.3772L54.9353 24.8564L57.1964 23.5791L58.9718 21.9652L63.487 17.0171L64.9678 15.8261L65.4992 16.6296L66.4104 18.7859L66.6894 20.3333L66.6141 22.1322L66.9913 23.5049L68.4753 24.1048L71.119 23.7889L71.9719 23.4213L75.2237 21.4739L80.8199 16.9302L81.3594 17.6772L82.2059 19.74L82.6859 24.5513L84.5865 25.4791L86.8903 25.1789L89.3238 23.7856L93.3967 19.3831L95.4015 17.9095L96.8494 21.384L97.473 24.9561L97.7665 25.397L99.276 26.0054L102.081 25.5111L103.977 24.4685L109.975 18.1407L111.162 17.2106L111.685 17.0226L112.318 17.9195L113.08 19.8043L113.511 23.9163L115.494 24.7244L117.756 24.4291L121.864 22.223L126.078 17.998L127.326 16.994L127.442 16.9277L128.281 19.3904L129.246 23.8007L131.109 24.6136L133.881 24.2229L138.588 21.551L140.311 19.8974L141.991 17.3138L142.641 18.8906L142.946 20.7396L143.374 22.8506L144.948 23.4868L147.602 23.2519L149.086 22.7202L151.906 21.2197L153.099 20.33L156.655 16.3183L158.383 14.768L161.255 21.7615L163.073 22.6336L167.569 22.1086L170.068 20.5832L171.755 18.1063L174.108 13.5053L175.459 12.0204L177.109 15.9154L181.233 22.306L182.886 23.582L184.187 24.1078L184.891 24.2693L187.571 23.836L190.101 22.5512L191.145 21.0365Z" fill="#4F8F4A"/>
<path d="M373.56 18.2934L373.226 16.9768L371.652 16.341L370.563 16.4834L368.334 15.375L367.379 14.4758L366.301 12.8274L365.071 9.96811L363.762 4.85508L363.438 4.36023L361.447 3.66012L359.409 3.92588L356.858 4.62165L354.995 5.64538L351.773 9.52699L348.998 13.7753L347.53 11.0864L346.37 6.78566L344.591 5.89454L343.797 5.84119L341.698 6.1153L338.789 7.72062L334.747 11.3371L331.03 15.2641L330.952 15.3129L330.353 14.1128L329.669 8.26904L327.793 7.26193L324.906 7.79911L323.064 8.81235L320.702 10.7543L319.242 12.7141L317.654 15.4155L316.892 16.0434L316.479 14.7374L315.556 8.87531L313.624 7.9869L311.337 8.28567L306.102 11.5723L301.271 15.8228L299.876 10.4593L299.194 9.71499L297.182 9.11285L295.161 9.37701L292.636 10.1407L289.746 11.6948L286.661 15.3444L285.298 16.5943L284.149 11.3198L283.61 10.605L281.7 9.83767L279.067 10.1703L276.487 11.498L272.474 14.0678L270.331 15.8133L270.256 15.6081L269.875 12.0165L269.399 10.344L268.293 9.02187L266.362 8.27667L264.159 8.56462L261.803 9.81777L257.768 13.5863L255.679 15.0503L254.077 15.9585L253.446 14.1955L252.541 8.05461L250.716 7.08657L247.797 7.56313L244.422 9.6649L242.711 11.2576L238.866 15.8227L237.48 16.9758L236.374 14.4376L235.939 8.34413L233.796 7.62869L231.714 7.90063L229.801 8.95241L228.908 10.2449L228.11 12.0982L224.575 16.0252L220.966 18.9224L219.679 19.7044L218.515 20.2042L218.052 19.3726L217.769 17.4082L218.364 9.31172L217.802 7.50011L215.917 6.75929L213.826 7.033L211.236 8.56333L209.154 11.1355L204.518 18.0876L203.224 19.4925L202.411 20.0709L201.801 19.2038L199.882 13.0751L197.936 12.1842L195.669 12.4798L193.234 13.8155L189.421 17.2797L189.023 17.1188L186.766 17.4134L184.908 18.4353L184.205 18.9296L183.231 20.3418L183.175 21.2725L183.767 23.1525L185.324 23.7822L188.038 23.5669L190.444 22.2288L194.737 18.3708L196.083 20.5798L197.665 24.5891L199.662 25.3057L201.797 25.0277L204.354 23.9287L207.126 22.1997L208.88 19.8155L212.012 14.3817L212.446 13.8201L213.372 17.8664L213.515 23.0539L213.893 24.3458L215.684 25.1852L219.108 24.6774L223.142 22.3201L226.077 19.6431L231.04 14.2762L231.795 16.0222L232.385 21.3819L232.63 21.9008L234.603 22.6341L237.35 22.1133L239.611 20.836L241.386 19.2221L245.902 14.274L247.382 13.083L247.914 13.8865L248.825 16.0428L249.104 17.5902L249.029 19.3891L249.406 20.7618L250.89 21.3617L253.534 21.0458L254.386 20.6782L257.638 18.7308L263.234 14.1871L263.774 14.9341L264.62 16.9969L265.1 21.8082L267.001 22.7359L269.305 22.4358L271.738 21.0425L275.811 16.64L277.816 15.1664L279.264 18.6409L279.888 22.213L280.181 22.6539L281.691 23.2623L284.495 22.7679L286.391 21.7254L292.389 15.3976L293.577 14.4675L294.099 14.2795L294.733 15.1764L295.494 17.0612L295.925 21.1732L297.909 21.9813L300.171 21.686L304.278 19.4799L308.492 15.2549L309.741 14.2509L309.856 14.1845L310.696 16.6473L311.66 21.0576L313.524 21.8705L316.295 21.4798L321.003 18.8079L322.726 17.1543L324.406 14.5706L325.056 16.1475L325.36 17.9965L325.788 20.1074L327.363 20.7437L330.017 20.5088L331.5 19.9771L334.321 18.4766L335.513 17.5869L339.069 13.5752L340.798 12.0248L343.669 19.0184L345.487 19.8905L349.984 19.3655L352.483 17.8401L354.169 15.3632L356.522 10.7622L357.873 9.27725L359.523 13.1723L363.648 19.5628L365.301 20.8389L366.601 21.3647L367.305 21.5262L369.986 21.0929L372.515 19.8081L373.56 18.2934Z" fill="#4F8F4A"/>
<path d="M558.267 15.5973L557.933 14.2808L556.36 13.6449L555.271 13.7873L553.042 12.679L552.087 11.7797L551.009 10.1314L549.779 7.27208L548.469 2.15904L548.145 1.6642L546.155 0.964083L544.116 1.22985L541.566 1.92561L539.702 2.94934L536.48 6.83096L533.706 11.0793L532.238 8.39035L531.078 4.08962L529.298 3.1985L528.505 3.14515L526.405 3.41927L523.496 5.02458L519.454 8.64111L515.738 12.5681L515.66 12.6169L515.06 11.4168L514.376 5.57301L512.501 4.5659L509.613 5.10308L507.772 6.11632L505.409 8.05829L503.95 10.0181L502.361 12.7195L501.599 13.3474L501.186 12.0413L500.264 6.17928L498.331 5.29087L496.044 5.58964L490.809 8.87623L485.978 13.1268L484.583 7.76327L483.902 7.01896L481.889 6.41682L479.868 6.68097L477.343 7.44471L474.454 8.99875L471.369 12.6484L470.005 13.8982L468.856 8.62378L468.317 7.90897L466.407 7.14163L463.774 7.47429L461.195 8.80198L457.182 11.3718L455.038 13.1173L454.963 12.9121L454.582 9.32042L454.106 7.64793L453 6.32583L451.069 5.58064L448.866 5.86859L446.51 7.12173L442.476 10.8903L440.386 12.3543L438.784 13.2625L438.154 11.4995L437.248 5.35858L435.424 4.39053L432.504 4.86709L429.13 6.96887L427.419 8.56155L423.574 13.1266L422.188 14.2798L421.081 11.7416L420.646 5.6481L418.504 4.93265L416.421 5.2046L414.508 6.25638L413.615 7.54882L412.817 9.40218L409.283 13.3292L405.674 16.2264L404.387 17.0084L403.223 17.5081L402.759 16.6766L402.476 14.7122L403.071 6.61568L402.51 4.80408L400.624 4.06326L398.534 4.33696L395.943 5.86729L393.861 8.43944L389.225 15.3915L387.932 16.7965L387.118 17.3749L386.508 16.5077L384.59 10.379L382.644 9.48818L380.376 9.7838L377.942 11.1195L374.128 14.5837L373.73 14.4227L371.473 14.7174L369.616 15.7393L368.913 16.2335L367.938 17.6457L367.883 18.5764L368.475 20.4564L370.031 21.0861L372.746 20.8709L375.151 19.5327L379.444 15.6748L380.79 17.8838L382.372 21.8931L384.369 22.6097L386.504 22.3316L389.061 21.2327L391.833 19.5036L393.587 17.1195L396.719 11.6856L397.153 11.124L398.08 15.1704L398.223 20.3578L398.6 21.6498L400.392 22.4892L403.816 21.9813L407.85 19.624L410.784 16.947L415.747 11.5801L416.502 13.3262L417.093 18.6859L417.337 19.2048L419.31 19.938L422.057 19.4172L424.318 18.14L426.094 16.5261L430.609 11.578L432.09 10.387L432.621 11.1904L433.532 13.3467L433.811 14.8941L433.736 16.6931L434.113 18.0658L435.597 18.6657L438.241 18.3497L439.094 17.9822L442.346 16.0348L447.942 11.491L448.481 12.238L449.328 14.3009L449.808 19.1122L451.708 20.0399L454.012 19.7397L456.446 18.3465L460.519 13.9439L462.523 12.4704L463.971 15.9448L464.595 19.5169L464.889 19.9579L466.398 20.5662L469.203 20.0719L471.099 19.0294L477.096 12.7015L478.284 11.7714L478.807 11.5835L479.44 12.4804L480.202 14.3651L480.633 18.4772L482.616 19.2853L484.878 18.99L488.986 16.7838L493.2 12.5589L494.448 11.5549L494.563 11.4885L495.403 13.9513L496.367 18.3616L498.231 19.1744L501.003 18.7837L505.71 16.1119L507.433 14.4583L509.113 11.8746L509.763 13.4514L510.068 15.3004L510.495 17.4114L512.07 18.0476L514.724 17.8128L516.208 17.2811L519.028 15.7805L520.221 14.8908L523.777 10.8792L525.505 9.3288L528.377 16.3223L530.195 17.1944L534.691 16.6695L537.19 15.144L538.877 12.6672L541.23 8.06616L542.581 6.58121L544.231 10.4762L548.355 16.8668L550.008 18.1429L551.309 18.6686L552.013 18.8301L554.693 18.3969L557.223 17.112L558.267 15.5973Z" fill="#4F8F4A"/>
<path d="M554.182 14.5937L554.607 13.3704L555.977 12.8312L556.859 13.0045L558.823 12.0458L559.713 11.2368L560.789 9.72935L562.128 7.09113L563.787 2.34098L564.111 1.88846L565.832 1.30409L567.483 1.62783L569.507 2.37375L570.928 3.40237L573.145 7.16228L574.952 11.25L576.467 8.78031L577.912 4.78696L579.481 4.01567L580.141 3.99455L581.841 4.32835L584.058 5.94084L586.982 9.48191L589.602 13.3024L589.661 13.3511L590.291 12.2468L591.518 6.78813L593.179 5.9115L595.5 6.52091L596.903 7.53886L598.632 9.44732L599.613 11.3396L600.617 13.9324L601.174 14.5494L601.663 13.3389L603.088 7.87181L604.783 7.10865L606.635 7.47242L610.58 10.7474L614.082 14.9122L615.841 9.93015L616.488 9.25657L618.215 8.76494L619.853 9.08655L621.848 9.8953L624.055 11.459L626.185 14.9962L627.168 16.2188L628.714 11.3113L629.239 10.6602L630.902 10.0098L633.036 10.418L635.013 11.758L638.031 14.3158L639.601 16.0319L639.686 15.842L640.407 12.4857L640.99 10.9336L642.052 9.73334L643.729 9.10451L645.513 9.45506L647.314 10.7169L650.214 14.4004L651.771 15.8504L652.989 16.761L653.709 15.1296L655.153 9.40027L656.767 8.55844L659.121 9.11213L661.666 11.2074L662.896 12.7644L665.55 17.1884L666.562 18.321L667.762 15.9796L668.812 10.2775L670.661 9.68434L672.347 10.0155L673.806 11.0722L674.395 12.3176L674.843 14.0858L677.313 17.8997L679.961 20.75L680.934 21.5307L681.837 22.0422L682.313 21.2787L682.77 19.4458L683.197 11.8265L683.866 10.1471L685.505 9.5207L687.198 9.85379L689.161 11.3843L690.586 13.8739L693.621 20.5666L694.529 21.9321L695.134 22.5045L695.736 21.7131L698.013 16.0321L699.719 15.2671L701.555 15.6272L703.412 16.9694L706.164 20.3592L706.511 20.2227L708.338 20.5815L709.755 21.6082L710.278 22.0976L710.922 23.4583L710.862 24.3337L710.161 26.0762L708.805 26.6103L706.591 26.3093L704.759 24.9659L701.656 21.1891L700.295 23.2129L698.536 26.9174L696.808 27.517L695.078 27.1782L693.094 26.0537L691.004 24.3301L689.828 22.0289L687.861 16.8157L687.567 16.2729L686.344 20.0361L685.637 24.8986L685.179 26.0971L683.607 26.8195L680.84 26.218L677.781 23.8589L675.664 21.2398L672.18 16.0227L671.359 17.6336L670.264 22.6414L670.004 23.1194L668.293 23.7355L666.087 23.1466L664.367 21.8656L663.086 20.2864L659.923 15.4785L658.837 14.3069L658.307 15.0415L657.311 17.0316L656.906 18.4735L656.764 20.1643L656.297 21.4386L655.005 21.9474L652.861 21.5545L652.199 21.1785L649.738 19.2325L645.638 14.7647L645.108 15.446L644.176 17.3508L643.234 21.8481L641.562 22.6493L639.696 22.2836L637.847 20.8874L634.987 16.6077L633.501 15.1518L631.913 18.3593L630.993 21.6885L630.701 22.0915L629.387 22.6074L627.13 22.0412L625.684 20.9938L621.456 14.8371L620.582 13.921L620.172 13.7256L619.548 14.5441L618.706 16.2849L617.884 20.1278L616.156 20.8138L614.325 20.4542L611.187 18.2342L608.191 14.1159L607.275 13.1282L607.187 13.0617L606.216 15.3421L604.92 19.4454L603.291 20.1402L601.049 19.6725L597.47 16.9936L596.236 15.3791L595.144 12.8933L594.429 14.3493L593.968 16.0732L593.376 18.0385L592.005 18.578L589.843 18.2608L588.68 17.7078L586.524 16.1969L585.641 15.3185L583.163 11.4244L581.913 9.9065L578.752 16.3643L577.154 17.1163L573.505 16.4597L571.617 14.9371L570.507 12.5514L569.088 8.14811L568.142 6.7054L566.34 10.3002L562.213 16.1464L560.705 17.2836L559.573 17.7295L558.974 17.8554L556.812 17.351L554.872 16.0531L554.182 14.5937Z" fill="#4F8F4A"/>
</svg>
