<svg width="24" height="10" viewBox="0 0 24 10" fill="none" xmlns="http://www.w3.org/2000/svg">
<g clip-path="url(#clip0_598_593)">
<path d="M-6.83936 6.33317C-5.22278 7.99984 -3.48184 9.99984 2.28882e-05 9.99984C3.48189 9.99984 5.38342 8.66667 7 7C8.36788 5.33333 9.4508 3.5 12.0622 3.5C14.6736 3.5 15.5078 5.33333 17 7C18.6166 8.66667 20.6425 9.99984 24.1244 9.99984C27.6062 9.99984 29.3472 7.99984 30.9638 6.33317L29.2228 4.83317C27.8549 6.49984 26.6114 7.83317 24 7.83317C21.3886 7.83317 20.2695 6.49984 18.7772 4.83317C17.285 3.1665 15.4197 1.1665 12.0622 1.1665C8.58033 1.1665 6.8394 3.1665 5.22282 4.83317C3.73059 6.49984 2.61142 7.83317 2.28882e-05 7.83317C-2.61138 7.83317 -3.73055 6.49984 -5.22277 4.83317L-6.83936 6.33317Z" fill="rgba(79, 143, 73)"/>
<path d="M-7.57886 5.16667C-5.96228 6.83333 -4.22134 8.83333 -0.739479 8.83333C2.74239 8.83333 4.48332 6.83333 6.0999 5.16667C7.46778 3.5 8.7113 2.16667 11.3227 2.16667C13.9341 2.16667 15.0533 3.5 16.5455 5.16667C18.1621 6.83333 19.903 8.83333 23.3849 8.83333C26.8667 8.83333 28.6077 6.83333 30.2243 5.16667L28.4833 3.66667C27.1154 5.33333 25.8719 6.66667 23.2605 6.66667C20.6491 6.66667 19.53 5.33333 18.0377 3.66667C16.5455 2 14.6802 0 11.3227 0C7.84083 0 6.0999 2 4.48332 3.66667C2.99109 5.33333 1.87192 6.66667 -0.739479 6.66667C-3.35088 6.66667 -4.47005 5.33333 -5.96228 3.66667L-7.57886 5.16667Z" fill="rgba(79, 143, 73)"/>
</g>
<defs>
<clipPath id="clip0_598_593">
<rect width="24" height="10" />
</clipPath>
</defs>
</svg>
